0
SECTION
2
HEADER
0
ENDSEC
0
SECTION
2
TABLES
0
TABLE
2
LAYER
0
LAYER
2
contorno
70
0
62
1
6
CONTINUOUS
0
0
LAYER
2
puntos_de_prospeccion
70
0
62
3
6
CONTINUOUS
0
0
ENDTAB
0
ENDSEC
0
SECTION
2
ENTITIES
0
POLYLINE
8
contorno
66
1
0
VERTEX
8
contorno
10
341523.26
20
4184493.06
30
0.0
0
VERTEX
8
contorno
10
341967.63
20
4184426.83
30
0.0
0
VERTEX
8
contorno
10
341904.85
20
4184173.90
30
0.0
0
VERTEX
8
contorno
10
341858.36
20
4184053.59
30
0.0
0
VERTEX
8
contorno
10
341481.68
20
4184117.53
30
0.0
0
VERTEX
8
contorno
10
341241.86
20
4184152.45
30
0.0
0
VERTEX
8
contorno
10
341091.20
20
4184178.81
30
0.0
0
VERTEX
8
contorno
10
341161.16
20
4184345.59
30
0.0
0
VERTEX
8
contorno
10
341190.33
20
4184382.17
30
0.0
0
VERTEX
8
contorno
10
341523.26
20
4184493.06
30
0.0
0
SEQEND
0
POINT
8
puntos_de_prospeccion
10
341614.77
20
4184101.57
30
0.0
0
TEXT
8
puntos_de_prospeccion
10
341616.77
20
4184103.57
30
0.0
40
5.0
1
1
0
POINT
8
puntos_de_prospeccion
10
341664.75
20
4184100.61
30
0.0
0
TEXT
8
puntos_de_prospeccion
10
341666.75
20
4184102.61
30
0.0
40
5.0
1
2
0
POINT
8
puntos_de_prospeccion
10
341714.74
20
4184099.65
30
0.0
0
TEXT
8
puntos_de_prospeccion
10
341716.74
20
4184101.65
30
0.0
40
5.0
1
3
0
POINT
8
puntos_de_prospeccion
10
341764.73
20
4184098.69
30
0.0
0
TEXT
8
puntos_de_prospeccion
10
341766.73
20
4184100.69
30
0.0
40
5.0
1
4
0
POINT
8
puntos_de_prospeccion
10
341814.72
20
4184097.73
30
0.0
0
TEXT
8
puntos_de_prospeccion
10
341816.72
20
4184099.73
30
0.0
40
5.0
1
5
0
POINT
8
puntos_de_prospeccion
10
341864.70
20
4184096.77
30
0.0
0
TEXT
8
puntos_de_prospeccion
10
341866.70
20
4184098.77
30
0.0
40
5.0
1
6
0
POINT
8
puntos_de_prospeccion
10
341290.68
20
4184151.12
30
0.0
0
TEXT
8
puntos_de_prospeccion
10
341292.68
20
4184153.12
30
0.0
40
5.0
1
7
0
POINT
8
puntos_de_prospeccion
10
341340.67
20
4184150.16
30
0.0
0
TEXT
8
puntos_de_prospeccion
10
341342.67
20
4184152.16
30
0.0
40
5.0
1
8
0
POINT
8
puntos_de_prospeccion
10
341390.66
20
4184149.20
30
0.0
0
TEXT
8
puntos_de_prospeccion
10
341392.66
20
4184151.20
30
0.0
40
5.0
1
9
0
POINT
8
puntos_de_prospeccion
10
341440.65
20
4184148.23
30
0.0
0
TEXT
8
puntos_de_prospeccion
10
341442.65
20
4184150.23
30
0.0
40
5.0
1
10
0
POINT
8
puntos_de_prospeccion
10
341490.63
20
4184147.27
30
0.0
0
TEXT
8
puntos_de_prospeccion
10
341492.63
20
4184149.27
30
0.0
40
5.0
1
11
0
POINT
8
puntos_de_prospeccion
10
341540.62
20
4184146.31
30
0.0
0
TEXT
8
puntos_de_prospeccion
10
341542.62
20
4184148.31
30
0.0
40
5.0
1
12
0
POINT
8
puntos_de_prospeccion
10
341590.61
20
4184145.34
30
0.0
0
TEXT
8
puntos_de_prospeccion
10
341592.61
20
4184147.34
30
0.0
40
5.0
1
13
0
POINT
8
puntos_de_prospeccion
10
341640.59
20
4184144.38
30
0.0
0
TEXT
8
puntos_de_prospeccion
10
341642.59
20
4184146.38
30
0.0
40
5.0
1
14
0
POINT
8
puntos_de_prospeccion
10
341690.58
20
4184143.42
30
0.0
0
TEXT
8
puntos_de_prospeccion
10
341692.58
20
4184145.42
30
0.0
40
5.0
1
15
0
POINT
8
puntos_de_prospeccion
10
341740.57
20
4184142.46
30
0.0
0
TEXT
8
puntos_de_prospeccion
10
341742.57
20
4184144.46
30
0.0
40
5.0
1
16
0
POINT
8
puntos_de_prospeccion
10
341790.55
20
4184141.50
30
0.0
0
TEXT
8
puntos_de_prospeccion
10
341792.55
20
4184143.50
30
0.0
40
5.0
1
17
0
POINT
8
puntos_de_prospeccion
10
341840.54
20
4184140.54
30
0.0
0
TEXT
8
puntos_de_prospeccion
10
341842.54
20
4184142.54
30
0.0
40
5.0
1
18
0
POINT
8
puntos_de_prospeccion
10
341890.53
20
4184139.58
30
0.0
0
TEXT
8
puntos_de_prospeccion
10
341892.53
20
4184141.58
30
0.0
40
5.0
1
19
0
POINT
8
puntos_de_prospeccion
10
341116.57
20
4184197.79
30
0.0
0
TEXT
8
puntos_de_prospeccion
10
341118.57
20
4184199.79
30
0.0
40
5.0
1
20
0
POINT
8
puntos_de_prospeccion
10
341166.55
20
4184196.82
30
0.0
0
TEXT
8
puntos_de_prospeccion
10
341168.55
20
4184198.82
30
0.0
40
5.0
1
21
0
POINT
8
puntos_de_prospeccion
10
341216.54
20
4184195.86
30
0.0
0
TEXT
8
puntos_de_prospeccion
10
341218.54
20
4184197.86
30
0.0
40
5.0
1
22
0
POINT
8
puntos_de_prospeccion
10
341266.53
20
4184194.89
30
0.0
0
TEXT
8
puntos_de_prospeccion
10
341268.53
20
4184196.89
30
0.0
40
5.0
1
23
0
POINT
8
puntos_de_prospeccion
10
341316.51
20
4184193.93
30
0.0
0
TEXT
8
puntos_de_prospeccion
10
341318.51
20
4184195.93
30
0.0
40
5.0
1
24
0
POINT
8
puntos_de_prospeccion
10
341366.50
20
4184192.97
30
0.0
0
TEXT
8
puntos_de_prospeccion
10
341368.50
20
4184194.97
30
0.0
40
5.0
1
25
0
POINT
8
puntos_de_prospeccion
10
341416.49
20
4184192.00
30
0.0
0
TEXT
8
puntos_de_prospeccion
10
341418.49
20
4184194.00
30
0.0
40
5.0
1
26
0
POINT
8
puntos_de_prospeccion
10
341466.47
20
4184191.04
30
0.0
0
TEXT
8
puntos_de_prospeccion
10
341468.47
20
4184193.04
30
0.0
40
5.0
1
27
0
POINT
8
puntos_de_prospeccion
10
341516.46
20
4184190.08
30
0.0
0
TEXT
8
puntos_de_prospeccion
10
341518.46
20
4184192.08
30
0.0
40
5.0
1
28
0
POINT
8
puntos_de_prospeccion
10
341566.45
20
4184189.11
30
0.0
0
TEXT
8
puntos_de_prospeccion
10
341568.45
20
4184191.11
30
0.0
40
5.0
1
29
0
POINT
8
puntos_de_prospeccion
10
341616.43
20
4184188.15
30
0.0
0
TEXT
8
puntos_de_prospeccion
10
341618.43
20
4184190.15
30
0.0
40
5.0
1
30
0
POINT
8
puntos_de_prospeccion
10
341666.42
20
4184187.19
30
0.0
0
TEXT
8
puntos_de_prospeccion
10
341668.42
20
4184189.19
30
0.0
40
5.0
1
31
0
POINT
8
puntos_de_prospeccion
10
341716.41
20
4184186.23
30
0.0
0
TEXT
8
puntos_de_prospeccion
10
341718.41
20
4184188.23
30
0.0
40
5.0
1
32
0
POINT
8
puntos_de_prospeccion
10
341766.39
20
4184185.27
30
0.0
0
TEXT
8
puntos_de_prospeccion
10
341768.39
20
4184187.27
30
0.0
40
5.0
1
33
0
POINT
8
puntos_de_prospeccion
10
341816.38
20
4184184.31
30
0.0
0
TEXT
8
puntos_de_prospeccion
10
341818.38
20
4184186.31
30
0.0
40
5.0
1
34
0
POINT
8
puntos_de_prospeccion
10
341866.37
20
4184183.35
30
0.0
0
TEXT
8
puntos_de_prospeccion
10
341868.37
20
4184185.35
30
0.0
40
5.0
1
35
0
POINT
8
puntos_de_prospeccion
10
341142.39
20
4184240.59
30
0.0
0
TEXT
8
puntos_de_prospeccion
10
341144.39
20
4184242.59
30
0.0
40
5.0
1
36
0
POINT
8
puntos_de_prospeccion
10
341192.38
20
4184239.63
30
0.0
0
TEXT
8
puntos_de_prospeccion
10
341194.38
20
4184241.63
30
0.0
40
5.0
1
37
0
POINT
8
puntos_de_prospeccion
10
341242.37
20
4184238.66
30
0.0
0
TEXT
8
puntos_de_prospeccion
10
341244.37
20
4184240.66
30
0.0
40
5.0
1
38
0
POINT
8
puntos_de_prospeccion
10
341292.35
20
4184237.70
30
0.0
0
TEXT
8
puntos_de_prospeccion
10
341294.35
20
4184239.70
30
0.0
40
5.0
1
39
0
POINT
8
puntos_de_prospeccion
10
341342.34
20
4184236.74
30
0.0
0
TEXT
8
puntos_de_prospeccion
10
341344.34
20
4184238.74
30
0.0
40
5.0
1
40
0
POINT
8
puntos_de_prospeccion
10
341392.33
20
4184235.77
30
0.0
0
TEXT
8
puntos_de_prospeccion
10
341394.33
20
4184237.77
30
0.0
40
5.0
1
41
0
POINT
8
puntos_de_prospeccion
10
341442.31
20
4184234.81
30
0.0
0
TEXT
8
puntos_de_prospeccion
10
341444.31
20
4184236.81
30
0.0
40
5.0
1
42
0
POINT
8
puntos_de_prospeccion
10
341492.30
20
4184233.85
30
0.0
0
TEXT
8
puntos_de_prospeccion
10
341494.30
20
4184235.85
30
0.0
40
5.0
1
43
0
POINT
8
puntos_de_prospeccion
10
341542.29
20
4184232.88
30
0.0
0
TEXT
8
puntos_de_prospeccion
10
341544.29
20
4184234.88
30
0.0
40
5.0
1
44
0
POINT
8
puntos_de_prospeccion
10
341592.27
20
4184231.92
30
0.0
0
TEXT
8
puntos_de_prospeccion
10
341594.27
20
4184233.92
30
0.0
40
5.0
1
45
0
POINT
8
puntos_de_prospeccion
10
341642.26
20
4184230.96
30
0.0
0
TEXT
8
puntos_de_prospeccion
10
341644.26
20
4184232.96
30
0.0
40
5.0
1
46
0
POINT
8
puntos_de_prospeccion
10
341692.25
20
4184230.00
30
0.0
0
TEXT
8
puntos_de_prospeccion
10
341694.25
20
4184232.00
30
0.0
40
5.0
1
47
0
POINT
8
puntos_de_prospeccion
10
341742.23
20
4184229.04
30
0.0
0
TEXT
8
puntos_de_prospeccion
10
341744.23
20
4184231.04
30
0.0
40
5.0
1
48
0
POINT
8
puntos_de_prospeccion
10
341792.22
20
4184228.08
30
0.0
0
TEXT
8
puntos_de_prospeccion
10
341794.22
20
4184230.08
30
0.0
40
5.0
1
49
0
POINT
8
puntos_de_prospeccion
10
341842.21
20
4184227.12
30
0.0
0
TEXT
8
puntos_de_prospeccion
10
341844.21
20
4184229.12
30
0.0
40
5.0
1
50
0
POINT
8
puntos_de_prospeccion
10
341892.19
20
4184226.15
30
0.0
0
TEXT
8
puntos_de_prospeccion
10
341894.19
20
4184228.15
30
0.0
40
5.0
1
51
0
POINT
8
puntos_de_prospeccion
10
341168.22
20
4184283.40
30
0.0
0
TEXT
8
puntos_de_prospeccion
10
341170.22
20
4184285.40
30
0.0
40
5.0
1
52
0
POINT
8
puntos_de_prospeccion
10
341218.21
20
4184282.44
30
0.0
0
TEXT
8
puntos_de_prospeccion
10
341220.21
20
4184284.44
30
0.0
40
5.0
1
53
0
POINT
8
puntos_de_prospeccion
10
341268.20
20
4184281.47
30
0.0
0
TEXT
8
puntos_de_prospeccion
10
341270.20
20
4184283.47
30
0.0
40
5.0
1
54
0
POINT
8
puntos_de_prospeccion
10
341318.18
20
4184280.51
30
0.0
0
TEXT
8
puntos_de_prospeccion
10
341320.18
20
4184282.51
30
0.0
40
5.0
1
55
0
POINT
8
puntos_de_prospeccion
10
341368.17
20
4184279.54
30
0.0
0
TEXT
8
puntos_de_prospeccion
10
341370.17
20
4184281.54
30
0.0
40
5.0
1
56
0
POINT
8
puntos_de_prospeccion
10
341418.15
20
4184278.58
30
0.0
0
TEXT
8
puntos_de_prospeccion
10
341420.15
20
4184280.58
30
0.0
40
5.0
1
57
0
POINT
8
puntos_de_prospeccion
10
341468.14
20
4184277.62
30
0.0
0
TEXT
8
puntos_de_prospeccion
10
341470.14
20
4184279.62
30
0.0
40
5.0
1
58
0
POINT
8
puntos_de_prospeccion
10
341518.13
20
4184276.65
30
0.0
0
TEXT
8
puntos_de_prospeccion
10
341520.13
20
4184278.65
30
0.0
40
5.0
1
59
0
POINT
8
puntos_de_prospeccion
10
341568.11
20
4184275.69
30
0.0
0
TEXT
8
puntos_de_prospeccion
10
341570.11
20
4184277.69
30
0.0
40
5.0
1
60
0
POINT
8
puntos_de_prospeccion
10
341618.10
20
4184274.73
30
0.0
0
TEXT
8
puntos_de_prospeccion
10
341620.10
20
4184276.73
30
0.0
40
5.0
1
61
0
POINT
8
puntos_de_prospeccion
10
341668.09
20
4184273.77
30
0.0
0
TEXT
8
puntos_de_prospeccion
10
341670.09
20
4184275.77
30
0.0
40
5.0
1
62
0
POINT
8
puntos_de_prospeccion
10
341718.07
20
4184272.81
30
0.0
0
TEXT
8
puntos_de_prospeccion
10
341720.07
20
4184274.81
30
0.0
40
5.0
1
63
0
POINT
8
puntos_de_prospeccion
10
341768.06
20
4184271.85
30
0.0
0
TEXT
8
puntos_de_prospeccion
10
341770.06
20
4184273.85
30
0.0
40
5.0
1
64
0
POINT
8
puntos_de_prospeccion
10
341818.04
20
4184270.88
30
0.0
0
TEXT
8
puntos_de_prospeccion
10
341820.04
20
4184272.88
30
0.0
40
5.0
1
65
0
POINT
8
puntos_de_prospeccion
10
341868.03
20
4184269.92
30
0.0
0
TEXT
8
puntos_de_prospeccion
10
341870.03
20
4184271.92
30
0.0
40
5.0
1
66
0
POINT
8
puntos_de_prospeccion
10
341918.02
20
4184268.96
30
0.0
0
TEXT
8
puntos_de_prospeccion
10
341920.02
20
4184270.96
30
0.0
40
5.0
1
67
0
POINT
8
puntos_de_prospeccion
10
341194.05
20
4184326.21
30
0.0
0
TEXT
8
puntos_de_prospeccion
10
341196.05
20
4184328.21
30
0.0
40
5.0
1
68
0
POINT
8
puntos_de_prospeccion
10
341244.04
20
4184325.24
30
0.0
0
TEXT
8
puntos_de_prospeccion
10
341246.04
20
4184327.24
30
0.0
40
5.0
1
69
0
POINT
8
puntos_de_prospeccion
10
341294.02
20
4184324.28
30
0.0
0
TEXT
8
puntos_de_prospeccion
10
341296.02
20
4184326.28
30
0.0
40
5.0
1
70
0
POINT
8
puntos_de_prospeccion
10
341344.01
20
4184323.31
30
0.0
0
TEXT
8
puntos_de_prospeccion
10
341346.01
20
4184325.31
30
0.0
40
5.0
1
71
0
POINT
8
puntos_de_prospeccion
10
341394.00
20
4184322.35
30
0.0
0
TEXT
8
puntos_de_prospeccion
10
341396.00
20
4184324.35
30
0.0
40
5.0
1
72
0
POINT
8
puntos_de_prospeccion
10
341443.98
20
4184321.39
30
0.0
0
TEXT
8
puntos_de_prospeccion
10
341445.98
20
4184323.39
30
0.0
40
5.0
1
73
0
POINT
8
puntos_de_prospeccion
10
341493.97
20
4184320.43
30
0.0
0
TEXT
8
puntos_de_prospeccion
10
341495.97
20
4184322.43
30
0.0
40
5.0
1
74
0
POINT
8
puntos_de_prospeccion
10
341543.95
20
4184319.46
30
0.0
0
TEXT
8
puntos_de_prospeccion
10
341545.95
20
4184321.46
30
0.0
40
5.0
1
75
0
POINT
8
puntos_de_prospeccion
10
341593.94
20
4184318.50
30
0.0
0
TEXT
8
puntos_de_prospeccion
10
341595.94
20
4184320.50
30
0.0
40
5.0
1
76
0
POINT
8
puntos_de_prospeccion
10
341643.93
20
4184317.54
30
0.0
0
TEXT
8
puntos_de_prospeccion
10
341645.93
20
4184319.54
30
0.0
40
5.0
1
77
0
POINT
8
puntos_de_prospeccion
10
341693.91
20
4184316.58
30
0.0
0
TEXT
8
puntos_de_prospeccion
10
341695.91
20
4184318.58
30
0.0
40
5.0
1
78
0
POINT
8
puntos_de_prospeccion
10
341743.90
20
4184315.62
30
0.0
0
TEXT
8
puntos_de_prospeccion
10
341745.90
20
4184317.62
30
0.0
40
5.0
1
79
0
POINT
8
puntos_de_prospeccion
10
341793.88
20
4184314.65
30
0.0
0
TEXT
8
puntos_de_prospeccion
10
341795.88
20
4184316.65
30
0.0
40
5.0
1
80
0
POINT
8
puntos_de_prospeccion
10
341843.87
20
4184313.69
30
0.0
0
TEXT
8
puntos_de_prospeccion
10
341845.87
20
4184315.69
30
0.0
40
5.0
1
81
0
POINT
8
puntos_de_prospeccion
10
341893.85
20
4184312.73
30
0.0
0
TEXT
8
puntos_de_prospeccion
10
341895.85
20
4184314.73
30
0.0
40
5.0
1
82
0
POINT
8
puntos_de_prospeccion
10
341219.88
20
4184369.01
30
0.0
0
TEXT
8
puntos_de_prospeccion
10
341221.88
20
4184371.01
30
0.0
40
5.0
1
83
0
POINT
8
puntos_de_prospeccion
10
341269.87
20
4184368.05
30
0.0
0
TEXT
8
puntos_de_prospeccion
10
341271.87
20
4184370.05
30
0.0
40
5.0
1
84
0
POINT
8
puntos_de_prospeccion
10
341319.85
20
4184367.09
30
0.0
0
TEXT
8
puntos_de_prospeccion
10
341321.85
20
4184369.09
30
0.0
40
5.0
1
85
0
POINT
8
puntos_de_prospeccion
10
341369.84
20
4184366.12
30
0.0
0
TEXT
8
puntos_de_prospeccion
10
341371.84
20
4184368.12
30
0.0
40
5.0
1
86
0
POINT
8
puntos_de_prospeccion
10
341419.82
20
4184365.16
30
0.0
0
TEXT
8
puntos_de_prospeccion
10
341421.82
20
4184367.16
30
0.0
40
5.0
1
87
0
POINT
8
puntos_de_prospeccion
10
341469.81
20
4184364.20
30
0.0
0
TEXT
8
puntos_de_prospeccion
10
341471.81
20
4184366.20
30
0.0
40
5.0
1
88
0
POINT
8
puntos_de_prospeccion
10
341519.79
20
4184363.23
30
0.0
0
TEXT
8
puntos_de_prospeccion
10
341521.79
20
4184365.23
30
0.0
40
5.0
1
89
0
POINT
8
puntos_de_prospeccion
10
341569.78
20
4184362.27
30
0.0
0
TEXT
8
puntos_de_prospeccion
10
341571.78
20
4184364.27
30
0.0
40
5.0
1
90
0
POINT
8
puntos_de_prospeccion
10
341619.77
20
4184361.31
30
0.0
0
TEXT
8
puntos_de_prospeccion
10
341621.77
20
4184363.31
30
0.0
40
5.0
1
91
0
POINT
8
puntos_de_prospeccion
10
341669.75
20
4184360.35
30
0.0
0
TEXT
8
puntos_de_prospeccion
10
341671.75
20
4184362.35
30
0.0
40
5.0
1
92
0
POINT
8
puntos_de_prospeccion
10
341719.74
20
4184359.38
30
0.0
0
TEXT
8
puntos_de_prospeccion
10
341721.74
20
4184361.38
30
0.0
40
5.0
1
93
0
POINT
8
puntos_de_prospeccion
10
341769.72
20
4184358.42
30
0.0
0
TEXT
8
puntos_de_prospeccion
10
341771.72
20
4184360.42
30
0.0
40
5.0
1
94
0
POINT
8
puntos_de_prospeccion
10
341819.71
20
4184357.46
30
0.0
0
TEXT
8
puntos_de_prospeccion
10
341821.71
20
4184359.46
30
0.0
40
5.0
1
95
0
POINT
8
puntos_de_prospeccion
10
341869.69
20
4184356.50
30
0.0
0
TEXT
8
puntos_de_prospeccion
10
341871.69
20
4184358.50
30
0.0
40
5.0
1
96
0
POINT
8
puntos_de_prospeccion
10
341919.68
20
4184355.54
30
0.0
0
TEXT
8
puntos_de_prospeccion
10
341921.68
20
4184357.54
30
0.0
40
5.0
1
97
0
POINT
8
puntos_de_prospeccion
10
341295.69
20
4184410.86
30
0.0
0
TEXT
8
puntos_de_prospeccion
10
341297.69
20
4184412.86
30
0.0
40
5.0
1
98
0
POINT
8
puntos_de_prospeccion
10
341345.68
20
4184409.89
30
0.0
0
TEXT
8
puntos_de_prospeccion
10
341347.68
20
4184411.89
30
0.0
40
5.0
1
99
0
POINT
8
puntos_de_prospeccion
10
341395.66
20
4184408.93
30
0.0
0
TEXT
8
puntos_de_prospeccion
10
341397.66
20
4184410.93
30
0.0
40
5.0
1
100
0
POINT
8
puntos_de_prospeccion
10
341445.65
20
4184407.97
30
0.0
0
TEXT
8
puntos_de_prospeccion
10
341447.65
20
4184409.97
30
0.0
40
5.0
1
101
0
POINT
8
puntos_de_prospeccion
10
341495.64
20
4184407.00
30
0.0
0
TEXT
8
puntos_de_prospeccion
10
341497.64
20
4184409.00
30
0.0
40
5.0
1
102
0
POINT
8
puntos_de_prospeccion
10
341545.62
20
4184406.04
30
0.0
0
TEXT
8
puntos_de_prospeccion
10
341547.62
20
4184408.04
30
0.0
40
5.0
1
103
0
POINT
8
puntos_de_prospeccion
10
341595.61
20
4184405.08
30
0.0
0
TEXT
8
puntos_de_prospeccion
10
341597.61
20
4184407.08
30
0.0
40
5.0
1
104
0
POINT
8
puntos_de_prospeccion
10
341645.59
20
4184404.12
30
0.0
0
TEXT
8
puntos_de_prospeccion
10
341647.59
20
4184406.12
30
0.0
40
5.0
1
105
0
POINT
8
puntos_de_prospeccion
10
341695.58
20
4184403.15
30
0.0
0
TEXT
8
puntos_de_prospeccion
10
341697.58
20
4184405.15
30
0.0
40
5.0
1
106
0
POINT
8
puntos_de_prospeccion
10
341745.56
20
4184402.19
30
0.0
0
TEXT
8
puntos_de_prospeccion
10
341747.56
20
4184404.19
30
0.0
40
5.0
1
107
0
POINT
8
puntos_de_prospeccion
10
341795.55
20
4184401.23
30
0.0
0
TEXT
8
puntos_de_prospeccion
10
341797.55
20
4184403.23
30
0.0
40
5.0
1
108
0
POINT
8
puntos_de_prospeccion
10
341845.53
20
4184400.27
30
0.0
0
TEXT
8
puntos_de_prospeccion
10
341847.53
20
4184402.27
30
0.0
40
5.0
1
109
0
POINT
8
puntos_de_prospeccion
10
341895.52
20
4184399.31
30
0.0
0
TEXT
8
puntos_de_prospeccion
10
341897.52
20
4184401.31
30
0.0
40
5.0
1
110
0
POINT
8
puntos_de_prospeccion
10
341945.50
20
4184398.35
30
0.0
0
TEXT
8
puntos_de_prospeccion
10
341947.50
20
4184400.35
30
0.0
40
5.0
1
111
0
POINT
8
puntos_de_prospeccion
10
341421.49
20
4184451.74
30
0.0
0
TEXT
8
puntos_de_prospeccion
10
341423.49
20
4184453.74
30
0.0
40
5.0
1
112
0
POINT
8
puntos_de_prospeccion
10
341471.48
20
4184450.77
30
0.0
0
TEXT
8
puntos_de_prospeccion
10
341473.48
20
4184452.77
30
0.0
40
5.0
1
113
0
POINT
8
puntos_de_prospeccion
10
341521.46
20
4184449.81
30
0.0
0
TEXT
8
puntos_de_prospeccion
10
341523.46
20
4184451.81
30
0.0
40
5.0
1
114
0
POINT
8
puntos_de_prospeccion
10
341571.45
20
4184448.85
30
0.0
0
TEXT
8
puntos_de_prospeccion
10
341573.45
20
4184450.85
30
0.0
40
5.0
1
115
0
POINT
8
puntos_de_prospeccion
10
341621.43
20
4184447.89
30
0.0
0
TEXT
8
puntos_de_prospeccion
10
341623.43
20
4184449.89
30
0.0
40
5.0
1
116
0
POINT
8
puntos_de_prospeccion
10
341671.42
20
4184446.92
30
0.0
0
TEXT
8
puntos_de_prospeccion
10
341673.42
20
4184448.92
30
0.0
40
5.0
1
117
0
POINT
8
puntos_de_prospeccion
10
341721.40
20
4184445.96
30
0.0
0
TEXT
8
puntos_de_prospeccion
10
341723.40
20
4184447.96
30
0.0
40
5.0
1
118
0
POINT
8
puntos_de_prospeccion
10
341771.39
20
4184445.00
30
0.0
0
TEXT
8
puntos_de_prospeccion
10
341773.39
20
4184447.00
30
0.0
40
5.0
1
119
0
POINT
8
puntos_de_prospeccion
10
341821.37
20
4184444.04
30
0.0
0
TEXT
8
puntos_de_prospeccion
10
341823.37
20
4184446.04
30
0.0
40
5.0
1
120
0
ENDSEC
0
EOF
