0
SECTION
2
HEADER
0
ENDSEC
0
SECTION
2
TABLES
0
TABLE
2
LAYER
0
LAYER
2
contorno
70
0
62
1
6
CONTINUOUS
0
0
LAYER
2
puntos_de_prospeccion
70
0
62
3
6
CONTINUOUS
0
0
LAYER
2
etiquetas
70
0
62
7
6
CONTINUOUS
0
0
ENDTAB
0
ENDSEC
0
SECTION
2
ENTITIES
0
POLYLINE
8
contorno
66
1
0
VERTEX
8
contorno
10
341523.2630025678
20
4184493.0608384325
30
0.0
0
VERTEX
8
contorno
10
341967.6338634599
20
4184426.8349566725
30
0.0
0
VERTEX
8
contorno
10
341904.84802414523
20
4184173.89804814
30
0.0
0
VERTEX
8
contorno
10
341858.3599259725
20
4184053.5853528366
30
0.0
0
VERTEX
8
contorno
10
341481.6769146519
20
4184117.5327216974
30
0.0
0
VERTEX
8
contorno
10
341241.85804135015
20
4184152.451310139
30
0.0
0
VERTEX
8
contorno
10
341091.1968866318
20
4184178.811054399
30
0.0
0
VERTEX
8
contorno
10
341161.15837489604
20
4184345.5918128393
30
0.0
0
VERTEX
8
contorno
10
341190.3294184139
20
4184382.17448237
30
0.0
0
VERTEX
8
contorno
10
341523.2630025678
20
4184493.0608384325
30
0.0
0
SEQEND
0
POINT
8
puntos_de_prospeccion
10
341614.7669910746
20
4184101.574466525
30
0.0
0
TEXT
8
puntos_de_prospeccion
10
341616.7669910746
20
4184103.574466525
30
0.0
40
5.0
1
1
0
POINT
8
puntos_de_prospeccion
10
341664.7542137066
20
4184100.612635057
30
0.0
0
TEXT
8
puntos_de_prospeccion
10
341666.7542137066
20
4184102.612635057
30
0.0
40
5.0
1
2
0
POINT
8
puntos_de_prospeccion
10
341714.74143243325
20
4184099.6511074468
30
0.0
0
TEXT
8
puntos_de_prospeccion
10
341716.74143243325
20
4184101.6511074468
30
0.0
40
5.0
1
3
0
POINT
8
puntos_de_prospeccion
10
341764.7286472558
20
4184098.689883695
30
0.0
0
TEXT
8
puntos_de_prospeccion
10
341766.7286472558
20
4184100.689883695
30
0.0
40
5.0
1
4
0
POINT
8
puntos_de_prospeccion
10
341814.7158581754
20
4184097.7289637993
30
0.0
0
TEXT
8
puntos_de_prospeccion
10
341816.7158581754
20
4184099.7289637993
30
0.0
40
5.0
1
5
0
POINT
8
puntos_de_prospeccion
10
341864.7030651933
20
4184096.7683477625
30
0.0
0
TEXT
8
puntos_de_prospeccion
10
341866.7030651933
20
4184098.7683477625
30
0.0
40
5.0
1
6
0
POINT
8
puntos_de_prospeccion
10
341290.6847399288
20
4184151.1227117567
30
0.0
0
TEXT
8
puntos_de_prospeccion
10
341292.6847399288
20
4184153.1227117567
30
0.0
40
5.0
1
7
0
POINT
8
puntos_de_prospeccion
10
341340.671724832
20
4184150.1589018162
30
0.0
0
TEXT
8
puntos_de_prospeccion
10
341342.671724832
20
4184152.1589018162
30
0.0
40
5.0
1
8
0
POINT
8
puntos_de_prospeccion
10
341390.658705822
20
4184149.195395735
30
0.0
0
TEXT
8
puntos_de_prospeccion
10
341392.658705822
20
4184151.195395735
30
0.0
40
5.0
1
9
0
POINT
8
puntos_de_prospeccion
10
341440.6456829002
20
4184148.232193515
30
0.0
0
TEXT
8
puntos_de_prospeccion
10
341442.6456829002
20
4184150.232193515
30
0.0
40
5.0
1
10
0
POINT
8
puntos_de_prospeccion
10
341490.6326560677
20
4184147.269295155
30
0.0
0
TEXT
8
puntos_de_prospeccion
10
341492.6326560677
20
4184149.269295155
30
0.0
40
5.0
1
11
0
POINT
8
puntos_de_prospeccion
10
341540.61962532566
20
4184146.3067006557
30
0.0
0
TEXT
8
puntos_de_prospeccion
10
341542.61962532566
20
4184148.3067006557
30
0.0
40
5.0
1
12
0
POINT
8
puntos_de_prospeccion
10
341590.60659067554
20
4184145.3444100153
30
0.0
0
TEXT
8
puntos_de_prospeccion
10
341592.60659067554
20
4184147.3444100153
30
0.0
40
5.0
1
13
0
POINT
8
puntos_de_prospeccion
10
341640.5935521183
20
4184144.3824232346
30
0.0
0
TEXT
8
puntos_de_prospeccion
10
341642.5935521183
20
4184146.3824232346
30
0.0
40
5.0
1
14
0
POINT
8
puntos_de_prospeccion
10
341690.5805096554
20
4184143.420740314
30
0.0
0
TEXT
8
puntos_de_prospeccion
10
341692.5805096554
20
4184145.420740314
30
0.0
40
5.0
1
15
0
POINT
8
puntos_de_prospeccion
10
341740.56746328797
20
4184142.459361252
30
0.0
0
TEXT
8
puntos_de_prospeccion
10
341742.56746328797
20
4184144.459361252
30
0.0
40
5.0
1
16
0
POINT
8
puntos_de_prospeccion
10
341790.55441301723
20
4184141.4982860484
30
0.0
0
TEXT
8
puntos_de_prospeccion
10
341792.55441301723
20
4184143.4982860484
30
0.0
40
5.0
1
17
0
POINT
8
puntos_de_prospeccion
10
341840.5413588444
20
4184140.537514704
30
0.0
0
TEXT
8
puntos_de_prospeccion
10
341842.5413588444
20
4184142.537514704
30
0.0
40
5.0
1
18
0
POINT
8
puntos_de_prospeccion
10
341890.5283007708
20
4184139.5770472167
30
0.0
0
TEXT
8
puntos_de_prospeccion
10
341892.5283007708
20
4184141.5770472167
30
0.0
40
5.0
1
19
0
POINT
8
puntos_de_prospeccion
10
341116.56598156766
20
4184197.7873880523
30
0.0
0
TEXT
8
puntos_de_prospeccion
10
341118.56598156766
20
4184199.7873880523
30
0.0
40
5.0
1
20
0
POINT
8
puntos_de_prospeccion
10
341166.5527170297
20
4184196.822511202
30
0.0
0
TEXT
8
puntos_de_prospeccion
10
341168.5527170297
20
4184198.822511202
30
0.0
40
5.0
1
21
0
POINT
8
puntos_de_prospeccion
10
341216.53944857453
20
4184195.8579382156
30
0.0
0
TEXT
8
puntos_de_prospeccion
10
341218.53944857453
20
4184197.8579382156
30
0.0
40
5.0
1
22
0
POINT
8
puntos_de_prospeccion
10
341266.5261762033
20
4184194.893669091
30
0.0
0
TEXT
8
puntos_de_prospeccion
10
341268.5261762033
20
4184196.893669091
30
0.0
40
5.0
1
23
0
POINT
8
puntos_de_prospeccion
10
341316.5128999173
20
4184193.9297038284
30
0.0
0
TEXT
8
puntos_de_prospeccion
10
341318.5128999173
20
4184195.9297038284
30
0.0
40
5.0
1
24
0
POINT
8
puntos_de_prospeccion
10
341366.49961971794
20
4184192.9660424287
30
0.0
0
TEXT
8
puntos_de_prospeccion
10
341368.49961971794
20
4184194.9660424287
30
0.0
40
5.0
1
25
0
POINT
8
puntos_de_prospeccion
10
341416.4863356062
20
4184192.002684891
30
0.0
0
TEXT
8
puntos_de_prospeccion
10
341418.4863356062
20
4184194.002684891
30
0.0
40
5.0
1
26
0
POINT
8
puntos_de_prospeccion
10
341466.4730475835
20
4184191.039631215
30
0.0
0
TEXT
8
puntos_de_prospeccion
10
341468.4730475835
20
4184193.039631215
30
0.0
40
5.0
1
27
0
POINT
8
puntos_de_prospeccion
10
341516.4597556509
20
4184190.0768814
30
0.0
0
TEXT
8
puntos_de_prospeccion
10
341518.4597556509
20
4184192.0768814
30
0.0
40
5.0
1
28
0
POINT
8
puntos_de_prospeccion
10
341566.44645980967
20
4184189.1144354455
30
0.0
0
TEXT
8
puntos_de_prospeccion
10
341568.44645980967
20
4184191.1144354455
30
0.0
40
5.0
1
29
0
POINT
8
puntos_de_prospeccion
10
341616.43316006096
20
4184188.1522933515
30
0.0
0
TEXT
8
puntos_de_prospeccion
10
341618.43316006096
20
4184190.1522933515
30
0.0
40
5.0
1
30
0
POINT
8
puntos_de_prospeccion
10
341666.41985640617
20
4184187.1904551187
30
0.0
0
TEXT
8
puntos_de_prospeccion
10
341668.41985640617
20
4184189.1904551187
30
0.0
40
5.0
1
31
0
POINT
8
puntos_de_prospeccion
10
341716.4065488465
20
4184186.228920746
30
0.0
0
TEXT
8
puntos_de_prospeccion
10
341718.4065488465
20
4184188.228920746
30
0.0
40
5.0
1
32
0
POINT
8
puntos_de_prospeccion
10
341766.3932373832
20
4184185.267690234
30
0.0
0
TEXT
8
puntos_de_prospeccion
10
341768.3932373832
20
4184187.267690234
30
0.0
40
5.0
1
33
0
POINT
8
puntos_de_prospeccion
10
341816.37992201746
20
4184184.306763579
30
0.0
0
TEXT
8
puntos_de_prospeccion
10
341818.37992201746
20
4184186.306763579
30
0.0
40
5.0
1
34
0
POINT
8
puntos_de_prospeccion
10
341866.3666027504
20
4184183.3461407865
30
0.0
0
TEXT
8
puntos_de_prospeccion
10
341868.3666027504
20
4184185.3461407865
30
0.0
40
5.0
1
35
0
POINT
8
puntos_de_prospeccion
10
341142.3949452357
20
4184240.5938611273
30
0.0
0
TEXT
8
puntos_de_prospeccion
10
341144.3949452357
20
4184242.5938611273
30
0.0
40
5.0
1
36
0
POINT
8
puntos_de_prospeccion
10
341192.38141558995
20
4184239.6291328175
30
0.0
0
TEXT
8
puntos_de_prospeccion
10
341194.38141558995
20
4184241.6291328175
30
0.0
40
5.0
1
37
0
POINT
8
puntos_de_prospeccion
10
341242.3678820278
20
4184238.664708371
30
0.0
0
TEXT
8
puntos_de_prospeccion
10
341244.3678820278
20
4184240.664708371
30
0.0
40
5.0
1
38
0
POINT
8
puntos_de_prospeccion
10
341292.3543445505
20
4184237.700587787
30
0.0
0
TEXT
8
puntos_de_prospeccion
10
341294.3543445505
20
4184239.700587787
30
0.0
40
5.0
1
39
0
POINT
8
puntos_de_prospeccion
10
341342.3408031594
20
4184236.736771068
30
0.0
0
TEXT
8
puntos_de_prospeccion
10
341344.3408031594
20
4184238.736771068
30
0.0
40
5.0
1
40
0
POINT
8
puntos_de_prospeccion
10
341392.3272578555
20
4184235.773258211
30
0.0
0
TEXT
8
puntos_de_prospeccion
10
341394.3272578555
20
4184237.773258211
30
0.0
40
5.0
1
41
0
POINT
8
puntos_de_prospeccion
10
341442.3137086403
20
4184234.8100492167
30
0.0
0
TEXT
8
puntos_de_prospeccion
10
341444.3137086403
20
4184236.8100492167
30
0.0
40
5.0
1
42
0
POINT
8
puntos_de_prospeccion
10
341492.30015551473
20
4184233.847144085
30
0.0
0
TEXT
8
puntos_de_prospeccion
10
341494.30015551473
20
4184235.847144085
30
0.0
40
5.0
1
43
0
POINT
8
puntos_de_prospeccion
10
341542.2865984802
20
4184232.8845428154
30
0.0
0
TEXT
8
puntos_de_prospeccion
10
341544.2865984802
20
4184234.8845428154
30
0.0
40
5.0
1
44
0
POINT
8
puntos_de_prospeccion
10
341592.27303753793
20
4184231.9222454084
30
0.0
0
TEXT
8
puntos_de_prospeccion
10
341594.27303753793
20
4184233.9222454084
30
0.0
40
5.0
1
45
0
POINT
8
puntos_de_prospeccion
10
341642.259472689
20
4184230.9602518626
30
0.0
0
TEXT
8
puntos_de_prospeccion
10
341644.259472689
20
4184232.9602518626
30
0.0
40
5.0
1
46
0
POINT
8
puntos_de_prospeccion
10
341692.24590393493
20
4184229.9985621776
30
0.0
0
TEXT
8
puntos_de_prospeccion
10
341694.24590393493
20
4184231.9985621776
30
0.0
40
5.0
1
47
0
POINT
8
puntos_de_prospeccion
10
341742.23233127675
20
4184229.0371763543
30
0.0
0
TEXT
8
puntos_de_prospeccion
10
341744.23233127675
20
4184231.0371763543
30
0.0
40
5.0
1
48
0
POINT
8
puntos_de_prospeccion
10
341792.21875471564
20
4184228.0760943918
30
0.0
0
TEXT
8
puntos_de_prospeccion
10
341794.21875471564
20
4184230.0760943918
30
0.0
40
5.0
1
49
0
POINT
8
puntos_de_prospeccion
10
341842.20517425303
20
4184227.11531629
30
0.0
0
TEXT
8
puntos_de_prospeccion
10
341844.20517425303
20
4184229.11531629
30
0.0
40
5.0
1
50
0
POINT
8
puntos_de_prospeccion
10
341892.19158989
20
4184226.1548420493
30
0.0
0
TEXT
8
puntos_de_prospeccion
10
341894.19158989
20
4184228.1548420493
30
0.0
40
5.0
1
51
0
POINT
8
puntos_de_prospeccion
10
341168.22365216113
20
4184283.4004093655
30
0.0
0
TEXT
8
puntos_de_prospeccion
10
341170.22365216113
20
4184285.4004093655
30
0.0
40
5.0
1
52
0
POINT
8
puntos_de_prospeccion
10
341218.2098574058
20
4184282.435829595
30
0.0
0
TEXT
8
puntos_de_prospeccion
10
341220.2098574058
20
4184284.435829595
30
0.0
40
5.0
1
53
0
POINT
8
puntos_de_prospeccion
10
341268.1960587349
20
4184281.47155369
30
0.0
0
TEXT
8
puntos_de_prospeccion
10
341270.1960587349
20
4184283.47155369
30
0.0
40
5.0
1
54
0
POINT
8
puntos_de_prospeccion
10
341318.18225614977
20
4184280.507581649
30
0.0
0
TEXT
8
puntos_de_prospeccion
10
341320.18225614977
20
4184282.507581649
30
0.0
40
5.0
1
55
0
POINT
8
puntos_de_prospeccion
10
341368.16844965157
20
4184279.5439134724
30
0.0
0
TEXT
8
puntos_de_prospeccion
10
341370.16844965157
20
4184281.5439134724
30
0.0
40
5.0
1
56
0
POINT
8
puntos_de_prospeccion
10
341418.1546392415
20
4184278.58054916
30
0.0
0
TEXT
8
puntos_de_prospeccion
10
341420.1546392415
20
4184280.58054916
30
0.0
40
5.0
1
57
0
POINT
8
puntos_de_prospeccion
10
341468.14082492085
20
4184277.6174887107
30
0.0
0
TEXT
8
puntos_de_prospeccion
10
341470.14082492085
20
4184279.6174887107
30
0.0
40
5.0
1
58
0
POINT
8
puntos_de_prospeccion
10
341518.1270066908
20
4184276.6547321253
30
0.0
0
TEXT
8
puntos_de_prospeccion
10
341520.1270066908
20
4184278.6547321253
30
0.0
40
5.0
1
59
0
POINT
8
puntos_de_prospeccion
10
341568.11318455264
20
4184275.6922794026
30
0.0
0
TEXT
8
puntos_de_prospeccion
10
341570.11318455264
20
4184277.6922794026
30
0.0
40
5.0
1
60
0
POINT
8
puntos_de_prospeccion
10
341618.09935850743
20
4184274.7301305425
30
0.0
0
TEXT
8
puntos_de_prospeccion
10
341620.09935850743
20
4184276.7301305425
30
0.0
40
5.0
1
61
0
POINT
8
puntos_de_prospeccion
10
341668.0855285566
20
4184273.768285546
30
0.0
0
TEXT
8
puntos_de_prospeccion
10
341670.0855285566
20
4184275.768285546
30
0.0
40
5.0
1
62
0
POINT
8
puntos_de_prospeccion
10
341718.0716947013
20
4184272.8067444107
30
0.0
0
TEXT
8
puntos_de_prospeccion
10
341720.0716947013
20
4184274.8067444107
30
0.0
40
5.0
1
63
0
POINT
8
puntos_de_prospeccion
10
341768.0578569429
20
4184271.845507138
30
0.0
0
TEXT
8
puntos_de_prospeccion
10
341770.0578569429
20
4184273.845507138
30
0.0
40
5.0
1
64
0
POINT
8
puntos_de_prospeccion
10
341818.0440152823
20
4184270.8845737274
30
0.0
0
TEXT
8
puntos_de_prospeccion
10
341820.0440152823
20
4184272.8845737274
30
0.0
40
5.0
1
65
0
POINT
8
puntos_de_prospeccion
10
341868.030169721
20
4184269.923944178
30
0.0
0
TEXT
8
puntos_de_prospeccion
10
341870.030169721
20
4184271.923944178
30
0.0
40
5.0
1
66
0
POINT
8
puntos_de_prospeccion
10
341918.0163202602
20
4184268.9636184913
30
0.0
0
TEXT
8
puntos_de_prospeccion
10
341920.0163202602
20
4184270.9636184913
30
0.0
40
5.0
1
67
0
POINT
8
puntos_de_prospeccion
10
341194.0521023406
20
4184326.2070327667
30
0.0
0
TEXT
8
puntos_de_prospeccion
10
341196.0521023406
20
4184328.2070327667
30
0.0
40
5.0
1
68
0
POINT
8
puntos_de_prospeccion
10
341244.038042474
20
4184325.2426015385
30
0.0
0
TEXT
8
puntos_de_prospeccion
10
341246.038042474
20
4184327.2426015385
30
0.0
40
5.0
1
69
0
POINT
8
puntos_de_prospeccion
10
341294.0239786926
20
4184324.2784741754
30
0.0
0
TEXT
8
puntos_de_prospeccion
10
341296.0239786926
20
4184326.2784741754
30
0.0
40
5.0
1
70
0
POINT
8
puntos_de_prospeccion
10
341344.00991099776
20
4184323.314650678
30
0.0
0
TEXT
8
puntos_de_prospeccion
10
341346.00991099776
20
4184325.314650678
30
0.0
40
5.0
1
71
0
POINT
8
puntos_de_prospeccion
10
341393.99583939067
20
4184322.3511310457
30
0.0
0
TEXT
8
puntos_de_prospeccion
10
341395.99583939067
20
4184324.3511310457
30
0.0
40
5.0
1
72
0
POINT
8
puntos_de_prospeccion
10
341443.9817638726
20
4184321.387915279
30
0.0
0
TEXT
8
puntos_de_prospeccion
10
341445.9817638726
20
4184323.387915279
30
0.0
40
5.0
1
73
0
POINT
8
puntos_de_prospeccion
10
341493.96768444485
20
4184320.425003376
30
0.0
0
TEXT
8
puntos_de_prospeccion
10
341495.96768444485
20
4184322.425003376
30
0.0
40
5.0
1
74
0
POINT
8
puntos_de_prospeccion
10
341543.9536011085
20
4184319.4623953365
30
0.0
0
TEXT
8
puntos_de_prospeccion
10
341545.9536011085
20
4184321.4623953365
30
0.0
40
5.0
1
75
0
POINT
8
puntos_de_prospeccion
10
341593.9395138648
20
4184318.5000911625
30
0.0
0
TEXT
8
puntos_de_prospeccion
10
341595.9395138648
20
4184320.5000911625
30
0.0
40
5.0
1
76
0
POINT
8
puntos_de_prospeccion
10
341643.925422715
20
4184317.5380908516
30
0.0
0
TEXT
8
puntos_de_prospeccion
10
341645.925422715
20
4184319.5380908516
30
0.0
40
5.0
1
77
0
POINT
8
puntos_de_prospeccion
10
341693.91132766043
20
4184316.5763944048
30
0.0
0
TEXT
8
puntos_de_prospeccion
10
341695.91132766043
20
4184318.5763944048
30
0.0
40
5.0
1
78
0
POINT
8
puntos_de_prospeccion
10
341743.89722870215
20
4184315.615001821
30
0.0
0
TEXT
8
puntos_de_prospeccion
10
341745.89722870215
20
4184317.615001821
30
0.0
40
5.0
1
79
0
POINT
8
puntos_de_prospeccion
10
341793.8831258415
20
4184314.6539131
30
0.0
0
TEXT
8
puntos_de_prospeccion
10
341795.8831258415
20
4184316.6539131
30
0.0
40
5.0
1
80
0
POINT
8
puntos_de_prospeccion
10
341843.8690190798
20
4184313.6931282426
30
0.0
0
TEXT
8
puntos_de_prospeccion
10
341845.8690190798
20
4184315.6931282426
30
0.0
40
5.0
1
81
0
POINT
8
puntos_de_prospeccion
10
341893.8549084181
20
4184312.7326472453
30
0.0
0
TEXT
8
puntos_de_prospeccion
10
341895.8549084181
20
4184314.7326472453
30
0.0
40
5.0
1
82
0
POINT
8
puntos_de_prospeccion
10
341219.8802957713
20
4184369.0137313353
30
0.0
0
TEXT
8
puntos_de_prospeccion
10
341221.8802957713
20
4184371.0137313353
30
0.0
40
5.0
1
83
0
POINT
8
puntos_de_prospeccion
10
341269.8659707913
20
4184368.04944865
30
0.0
0
TEXT
8
puntos_de_prospeccion
10
341271.8659707913
20
4184370.04944865
30
0.0
40
5.0
1
84
0
POINT
8
puntos_de_prospeccion
10
341319.8516418977
20
4184367.0854698303
30
0.0
0
TEXT
8
puntos_de_prospeccion
10
341321.8516418977
20
4184369.0854698303
30
0.0
40
5.0
1
85
0
POINT
8
puntos_de_prospeccion
10
341369.8373090914
20
4184366.1217948776
30
0.0
0
TEXT
8
puntos_de_prospeccion
10
341371.8373090914
20
4184368.1217948776
30
0.0
40
5.0
1
86
0
POINT
8
puntos_de_prospeccion
10
341419.8229723737
20
4184365.1584237902
30
0.0
0
TEXT
8
puntos_de_prospeccion
10
341421.8229723737
20
4184367.1584237902
30
0.0
40
5.0
1
87
0
POINT
8
puntos_de_prospeccion
10
341469.80863174587
20
4184364.19535657
30
0.0
0
TEXT
8
puntos_de_prospeccion
10
341471.80863174587
20
4184366.19535657
30
0.0
40
5.0
1
88
0
POINT
8
puntos_de_prospeccion
10
341519.79428720917
20
4184363.2325932146
30
0.0
0
TEXT
8
puntos_de_prospeccion
10
341521.79428720917
20
4184365.2325932146
30
0.0
40
5.0
1
89
0
POINT
8
puntos_de_prospeccion
10
341569.77993876475
20
4184362.2701337244
30
0.0
0
TEXT
8
puntos_de_prospeccion
10
341571.77993876475
20
4184364.2701337244
30
0.0
40
5.0
1
90
0
POINT
8
puntos_de_prospeccion
10
341619.7655864137
20
4184361.3079780987
30
0.0
0
TEXT
8
puntos_de_prospeccion
10
341621.7655864137
20
4184363.3079780987
30
0.0
40
5.0
1
91
0
POINT
8
puntos_de_prospeccion
10
341669.75123015756
20
4184360.3461263375
30
0.0
0
TEXT
8
puntos_de_prospeccion
10
341671.75123015756
20
4184362.3461263375
30
0.0
40
5.0
1
92
0
POINT
8
puntos_de_prospeccion
10
341719.73686999734
20
4184359.384578442
30
0.0
0
TEXT
8
puntos_de_prospeccion
10
341721.73686999734
20
4184361.384578442
30
0.0
40
5.0
1
93
0
POINT
8
puntos_de_prospeccion
10
341769.7225059344
20
4184358.42333441
30
0.0
0
TEXT
8
puntos_de_prospeccion
10
341771.7225059344
20
4184360.42333441
30
0.0
40
5.0
1
94
0
POINT
8
puntos_de_prospeccion
10
341819.7081379699
20
4184357.4623942426
30
0.0
0
TEXT
8
puntos_de_prospeccion
10
341821.7081379699
20
4184359.4623942426
30
0.0
40
5.0
1
95
0
POINT
8
puntos_de_prospeccion
10
341869.69376610505
20
4184356.501757939
30
0.0
0
TEXT
8
puntos_de_prospeccion
10
341871.69376610505
20
4184358.501757939
30
0.0
40
5.0
1
96
0
POINT
8
puntos_de_prospeccion
10
341919.67939034104
20
4184355.541425498
30
0.0
0
TEXT
8
puntos_de_prospeccion
10
341921.67939034104
20
4184357.541425498
30
0.0
40
5.0
1
97
0
POINT
8
puntos_de_prospeccion
10
341295.6936423547
20
4184410.856370926
30
0.0
0
TEXT
8
puntos_de_prospeccion
10
341297.6936423547
20
4184412.856370926
30
0.0
40
5.0
1
98
0
POINT
8
puntos_de_prospeccion
10
341345.67904834694
20
4184409.8925406514
30
0.0
0
TEXT
8
puntos_de_prospeccion
10
341347.67904834694
20
4184411.8925406514
30
0.0
40
5.0
1
99
0
POINT
8
puntos_de_prospeccion
10
341395.66445042734
20
4184408.9290142446
30
0.0
0
TEXT
8
puntos_de_prospeccion
10
341397.66445042734
20
4184410.9290142446
30
0.0
40
5.0
1
100
0
POINT
8
puntos_de_prospeccion
10
341445.64984859724
20
4184407.965791704
30
0.0
0
TEXT
8
puntos_de_prospeccion
10
341447.64984859724
20
4184409.965791704
30
0.0
40
5.0
1
101
0
POINT
8
puntos_de_prospeccion
10
341495.63524285785
20
4184407.002873031
30
0.0
0
TEXT
8
puntos_de_prospeccion
10
341497.63524285785
20
4184409.002873031
30
0.0
40
5.0
1
102
0
POINT
8
puntos_de_prospeccion
10
341545.6206332104
20
4184406.0402582246
30
0.0
0
TEXT
8
puntos_de_prospeccion
10
341547.6206332104
20
4184408.0402582246
30
0.0
40
5.0
1
103
0
POINT
8
puntos_de_prospeccion
10
341595.606019656
20
4184405.077947283
30
0.0
0
TEXT
8
puntos_de_prospeccion
10
341597.606019656
20
4184407.077947283
30
0.0
40
5.0
1
104
0
POINT
8
puntos_de_prospeccion
10
341645.591402196
20
4184404.1159402085
30
0.0
0
TEXT
8
puntos_de_prospeccion
10
341647.591402196
20
4184406.1159402085
30
0.0
40
5.0
1
105
0
POINT
8
puntos_de_prospeccion
10
341695.5767808316
20
4184403.1542369993
30
0.0
0
TEXT
8
puntos_de_prospeccion
10
341697.5767808316
20
4184405.1542369993
30
0.0
40
5.0
1
106
0
POINT
8
puntos_de_prospeccion
10
341745.5621555641
20
4184402.192837656
30
0.0
0
TEXT
8
puntos_de_prospeccion
10
341747.5621555641
20
4184404.192837656
30
0.0
40
5.0
1
107
0
POINT
8
puntos_de_prospeccion
10
341795.5475263946
20
4184401.231742177
30
0.0
0
TEXT
8
puntos_de_prospeccion
10
341797.5475263946
20
4184403.231742177
30
0.0
40
5.0
1
108
0
POINT
8
puntos_de_prospeccion
10
341845.5328933244
20
4184400.2709505633
30
0.0
0
TEXT
8
puntos_de_prospeccion
10
341847.5328933244
20
4184402.2709505633
30
0.0
40
5.0
1
109
0
POINT
8
puntos_de_prospeccion
10
341895.5182563547
20
4184399.3104628143
30
0.0
0
TEXT
8
puntos_de_prospeccion
10
341897.5182563547
20
4184401.3104628143
30
0.0
40
5.0
1
110
0
POINT
8
puntos_de_prospeccion
10
341945.5036154868
20
4184398.350278929
30
0.0
0
TEXT
8
puntos_de_prospeccion
10
341947.5036154868
20
4184400.350278929
30
0.0
40
5.0
1
111
0
POINT
8
puntos_de_prospeccion
10
341421.4913350026
20
4184451.736308782
30
0.0
0
TEXT
8
puntos_de_prospeccion
10
341423.4913350026
20
4184453.736308782
30
0.0
40
5.0
1
112
0
POINT
8
puntos_de_prospeccion
10
341471.4764680583
20
4184450.77323479
30
0.0
0
TEXT
8
puntos_de_prospeccion
10
341473.4764680583
20
4184452.77323479
30
0.0
40
5.0
1
113
0
POINT
8
puntos_de_prospeccion
10
341521.4615972056
20
4184449.8104646658
30
0.0
0
TEXT
8
puntos_de_prospeccion
10
341523.4615972056
20
4184451.8104646658
30
0.0
40
5.0
1
114
0
POINT
8
puntos_de_prospeccion
10
341571.44672244554
20
4184448.847998408
30
0.0
0
TEXT
8
puntos_de_prospeccion
10
341573.44672244554
20
4184450.847998408
30
0.0
40
5.0
1
115
0
POINT
8
puntos_de_prospeccion
10
341621.43184377946
20
4184447.885836019
30
0.0
0
TEXT
8
puntos_de_prospeccion
10
341623.43184377946
20
4184449.885836019
30
0.0
40
5.0
1
116
0
POINT
8
puntos_de_prospeccion
10
341671.41696120857
20
4184446.9239774956
30
0.0
0
TEXT
8
puntos_de_prospeccion
10
341673.41696120857
20
4184448.9239774956
30
0.0
40
5.0
1
117
0
POINT
8
puntos_de_prospeccion
10
341721.4020747342
20
4184445.9624228394
30
0.0
0
TEXT
8
puntos_de_prospeccion
10
341723.4020747342
20
4184447.9624228394
30
0.0
40
5.0
1
118
0
POINT
8
puntos_de_prospeccion
10
341771.3871843576
20
4184445.0011720485
30
0.0
0
TEXT
8
puntos_de_prospeccion
10
341773.3871843576
20
4184447.0011720485
30
0.0
40
5.0
1
119
0
POINT
8
puntos_de_prospeccion
10
341821.3722900797
20
4184444.0402251245
30
0.0
0
TEXT
8
puntos_de_prospeccion
10
341823.3722900797
20
4184446.0402251245
30
0.0
40
5.0
1
120
0
ENDSEC
0
EOF
